<svg xmlns="http://www.w3.org/2000/svg" viewBox="0 0 297 297" width="512" height="512">
  <g fill="#FFF">
    <path d="M45.4 35a10.6 10.6 0 0 0-10.6 10.6V205c0 5.9 4.8 10.7 10.7 10.7 24.7 0 66.2 5.2 94.8 35.1V84c0-2-.6-3.8-1.5-5.4C115.3 40.8 70.2 35.1 45.4 35zM262.2 205V45.7A10.6 10.6 0 0 0 251.6 35c-24.8.1-70 5.8-93.4 43.6-1 1.6-1.4 3.4-1.4 5.4v166.8c28.5-30 70-35 94.7-35.1 5.9 0 10.7-4.8 10.7-10.7z"/>
    <path d="M286.4 71.8h-7.7V205c0 15-12.2 27.1-27.1 27.2-21 0-55.6 4.1-80.1 27.3 42.4-10.4 87-3.6 112.5 2.2a10.6 10.6 0 0 0 13-10.4V82.4c0-5.8-4.8-10.6-10.6-10.6zM18.3 205V71.8h-7.7C4.8 71.8 0 76.6 0 82.4v169a10.6 10.6 0 0 0 13 10.3c25.5-5.8 70.1-12.6 112.5-2.2-24.5-23.2-59-27.3-80-27.3-15 0-27.2-12.2-27.2-27.2z"/>
  </g>
</svg>